<svg width="20" height="24" viewBox="0 0 20 24" fill="none" xmlns="http://www.w3.org/2000/svg">
<path d="M6.935 21.4691L6.555 18.4291C6.34917 18.3499 6.15521 18.2549 5.97312 18.1441C5.79104 18.0333 5.61292 17.9145 5.43875 17.7879L2.6125 18.9754L0 14.4629L2.44625 12.6104C2.43042 12.4995 2.4225 12.3927 2.4225 12.2897C2.4225 12.1868 2.4225 12.0799 2.4225 11.9691C2.4225 11.8583 2.4225 11.7514 2.4225 11.6485C2.4225 11.5456 2.43042 11.4387 2.44625 11.3279L0 9.47537L2.6125 4.96287L5.43875 6.15037C5.61292 6.0237 5.795 5.90495 5.985 5.79412C6.175 5.68328 6.365 5.58828 6.555 5.50912L6.935 2.46912H12.16L12.54 5.50912C12.7458 5.58828 12.9398 5.68328 13.1219 5.79412C13.304 5.90495 13.4821 6.0237 13.6562 6.15037L16.4825 4.96287L19.095 9.47537L16.6487 11.3279C16.6646 11.4387 16.6725 11.5456 16.6725 11.6485C16.6725 11.7514 16.6725 11.8583 16.6725 11.9691C16.6725 12.0799 16.6725 12.1868 16.6725 12.2897C16.6725 12.3927 16.6567 12.4995 16.625 12.6104L19.0713 14.4629L16.4588 18.9754L13.6562 17.7879C13.4821 17.9145 13.3 18.0333 13.11 18.1441C12.92 18.2549 12.73 18.3499 12.54 18.4291L12.16 21.4691H6.935V21.4691M8.5975 19.5691H10.4737L10.8062 17.0516C11.2971 16.9249 11.7523 16.7389 12.1719 16.4935C12.5915 16.2481 12.9754 15.9512 13.3237 15.6029L15.675 16.5766L16.6013 14.9616L14.5587 13.4179C14.6379 13.1962 14.6933 12.9627 14.725 12.7172C14.7567 12.4718 14.7725 12.2224 14.7725 11.9691C14.7725 11.7158 14.7567 11.4664 14.725 11.221C14.6933 10.9756 14.6379 10.742 14.5587 10.5204L16.6013 8.97662L15.675 7.36162L13.3237 8.35912C12.9754 7.99495 12.5915 7.69016 12.1719 7.44474C11.7523 7.19932 11.2971 7.01328 10.8062 6.88662L10.4975 4.36912H8.62125L8.28875 6.88662C7.79792 7.01328 7.34271 7.19932 6.92312 7.44474C6.50354 7.69016 6.11958 7.98703 5.77125 8.33537L3.42 7.36162L2.49375 8.97662L4.53625 10.4966C4.45708 10.7341 4.40167 10.9716 4.37 11.2091C4.33833 11.4466 4.3225 11.6999 4.3225 11.9691C4.3225 12.2224 4.33833 12.4679 4.37 12.7054C4.40167 12.9429 4.45708 13.1804 4.53625 13.4179L2.49375 14.9616L3.42 16.5766L5.77125 15.5791C6.11958 15.9433 6.50354 16.2481 6.92312 16.4935C7.34271 16.7389 7.79792 16.9249 8.28875 17.0516L8.5975 19.5691V19.5691M9.595 15.2941C10.5133 15.2941 11.2971 14.9695 11.9462 14.3204C12.5954 13.6712 12.92 12.8874 12.92 11.9691C12.92 11.0508 12.5954 10.267 11.9462 9.61787C11.2971 8.9687 10.5133 8.64412 9.595 8.64412C8.66083 8.64412 7.87313 8.9687 7.23188 9.61787C6.59063 10.267 6.27 11.0508 6.27 11.9691C6.27 12.8874 6.59063 13.6712 7.23188 14.3204C7.87313 14.9695 8.66083 15.2941 9.595 15.2941V15.2941M9.5475 11.9691V11.9691V11.9691V11.9691V11.9691V11.9691V11.9691V11.9691V11.9691V11.9691V11.9691V11.9691V11.9691V11.9691V11.9691V11.9691V11.9691V11.9691V11.9691V11.9691V11.9691V11.9691V11.9691V11.9691V11.9691V11.9691V11.9691V11.9691V11.9691V11.9691V11.9691V11.9691V11.9691V11.9691V11.9691V11.9691" fill="white"/>
</svg>
