<svg width="15" height="15" viewBox="0 0 15 15" fill="none" xmlns="http://www.w3.org/2000/svg">
<path d="M7.5 6.66667C9.58333 6.66667 11.3542 6.34028 12.8125 5.6875C14.2708 5.03472 15 4.25 15 3.33333C15 2.41667 14.2708 1.63194 12.8125 0.979167C11.3542 0.326389 9.58333 0 7.5 0C5.41667 0 3.64583 0.326389 2.1875 0.979167C0.729167 1.63194 0 2.41667 0 3.33333C0 4.25 0.729167 5.03472 2.1875 5.6875C3.64583 6.34028 5.41667 6.66667 7.5 6.66667V6.66667M7.5 8.75C8.06944 8.75 8.78125 8.69097 9.63542 8.57292C10.4896 8.45486 11.3125 8.26389 12.1042 8C12.8958 7.73611 13.5764 7.39236 14.1458 6.96875C14.7153 6.54514 15 6.02778 15 5.41667V7.5C15 8.11111 14.7153 8.62847 14.1458 9.05208C13.5764 9.47569 12.8958 9.81944 12.1042 10.0833C11.3125 10.3472 10.4896 10.5382 9.63542 10.6562C8.78125 10.7743 8.06944 10.8333 7.5 10.8333C6.93056 10.8333 6.21875 10.7743 5.36458 10.6562C4.51042 10.5382 3.6875 10.3472 2.89583 10.0833C2.10417 9.81944 1.42361 9.47569 0.854167 9.05208C0.284722 8.62847 0 8.11111 0 7.5V5.41667C0 6.02778 0.284722 6.54514 0.854167 6.96875C1.42361 7.39236 2.10417 7.73611 2.89583 8C3.6875 8.26389 4.51042 8.45486 5.36458 8.57292C6.21875 8.69097 6.93056 8.75 7.5 8.75V8.75M7.5 12.9167C8.06944 12.9167 8.78125 12.8576 9.63542 12.7396C10.4896 12.6215 11.3125 12.4306 12.1042 12.1667C12.8958 11.9028 13.5764 11.559 14.1458 11.1354C14.7153 10.7118 15 10.1944 15 9.58333V11.6667C15 12.2778 14.7153 12.7951 14.1458 13.2188C13.5764 13.6424 12.8958 13.9861 12.1042 14.25C11.3125 14.5139 10.4896 14.7049 9.63542 14.8229C8.78125 14.941 8.06944 15 7.5 15C6.93056 15 6.21875 14.941 5.36458 14.8229C4.51042 14.7049 3.6875 14.5139 2.89583 14.25C2.10417 13.9861 1.42361 13.6424 0.854167 13.2188C0.284722 12.7951 0 12.2778 0 11.6667V9.58333C0 10.1944 0.284722 10.7118 0.854167 11.1354C1.42361 11.559 2.10417 11.9028 2.89583 12.1667C3.6875 12.4306 4.51042 12.6215 5.36458 12.7396C6.21875 12.8576 6.93056 12.9167 7.5 12.9167V12.9167" fill="#FFB4AA"/>
</svg>
